<?xml version="1.0" encoding="UTF-8"?>
<svg version="1.1" xmlns="http://www.w3.org/2000/svg" width="216" height="216">
<path d="M0 0 C10.07750644 9.02436163 15.043711 21.8087511 16.29394531 35.13259888 C16.42481627 38.41600797 16.46816183 41.68665686 16.46875 44.97265625 C16.47636353 46.17578964 16.48397705 47.37892303 16.49182129 48.61851501 C16.50256086 51.15052228 16.50550063 53.68257361 16.50097656 56.21459961 C16.5000086 60.02861071 16.54161769 63.84057732 16.5859375 67.65429688 C16.65537811 81.82150845 15.76494322 94.59990963 11 108 C10.59670219 109.1348156 10.59670219 109.1348156 10.18525696 110.29255676 C4.90416628 124.89590291 -2.94278059 138.1508484 -13 150 C-13.97646484 151.19302734 -13.97646484 151.19302734 -14.97265625 152.41015625 C-34.01698168 174.77254926 -62.96641218 186.59305427 -91.20925903 191.91226196 C-102.91522714 194.13985917 -113.7833063 196.79133343 -124.44140625 202.30078125 C-134.44522166 207.07757565 -145.35465753 207.51740252 -155.8203125 203.90625 C-162.93625924 200.94764849 -168.14728303 196.17433145 -171.265625 189.1484375 C-174.34214214 180.24387027 -175.08013578 171.34684432 -173.49609375 162.0390625 C-172.93414306 158.59656144 -172.79410182 155.30021887 -172.75 151.8125 C-172.72421875 150.60207031 -172.6984375 149.39164063 -172.671875 148.14453125 C-172.78041528 144.8879237 -173.50722608 142.15707688 -174.484375 139.0546875 C-176.45157844 132.25309915 -176.52272453 125.5403069 -176.50097656 118.52270508 C-176.50000868 116.33213731 -176.541669 114.14513942 -176.5859375 111.95507812 C-176.76143538 91.1894815 -168.10206966 72.86950352 -155 57 C-154.23945313 56.07445312 -153.47890625 55.14890625 -152.6953125 54.1953125 C-132.89524338 31.27916693 -106.13695156 21.580139 -77.97827148 12.92724609 C-67.63398948 9.70909971 -57.92847825 5.70593238 -48.5 0.375 C-33.03052093 -8.04890526 -15.08925076 -10.96181805 0 0 Z " fill="#000000" transform="translate(188,8)"/>
<path d="M0 0 C0.76183594 -0.02835938 1.52367187 -0.05671875 2.30859375 -0.0859375 C5.61266437 0.58976498 6.57943703 1.63469146 8.5625 4.375 C9.58846341 7.42788495 10.17521823 10.52256241 10.75 13.6875 C10.91435547 14.51701172 11.07871094 15.34652344 11.24804688 16.20117188 C17.55185411 48.53689562 13.72590463 81.33647056 -4.59423828 109.12988281 C-20.0576512 131.48494388 -44.09978907 145.02694953 -70.4375 150.375 C-83.34681267 152.70170597 -96.33998812 153.87124954 -109.4375 154.375 C-109.69144531 155.13425781 -109.94539063 155.89351562 -110.20703125 156.67578125 C-110.55121094 157.66964844 -110.89539063 158.66351563 -111.25 159.6875 C-111.58644531 160.67363281 -111.92289063 161.65976563 -112.26953125 162.67578125 C-113.40978392 165.31094713 -114.12091383 166.71477991 -116.4375 168.375 C-119.50838466 169.05364854 -122.35153557 168.94771052 -125.4375 168.375 C-128.0625 166.4375 -128.0625 166.4375 -129.4375 163.375 C-129.81463759 151.49516588 -123.2475975 139.94508628 -115.4375 131.375 C-114.48810547 130.28832031 -114.48810547 130.28832031 -113.51953125 129.1796875 C-105.28496869 120.31169705 -94.81246366 114.38381751 -84.52050781 108.21337891 C-76.58926455 103.45098106 -69.32359827 98.59965487 -62.4375 92.375 C-61.71691406 91.74722656 -60.99632813 91.11945313 -60.25390625 90.47265625 C-57.3304739 87.78451021 -55.65196783 85.95067681 -54.25 82.1875 C-54.2108131 79.29470522 -54.2108131 79.29470522 -56 77 C-59.06794484 74.95470344 -60.81291831 74.9894062 -64.4375 75.375 C-67.5180623 76.009017 -67.5180623 76.009017 -68.33203125 78.1640625 C-73.13509091 87.77018183 -87.09222683 93.95846401 -95.85083008 99.18969727 C-107.47858246 106.14699914 -118.22937783 113.28991382 -127.4375 123.375 C-133.15567185 114.79774222 -131.65815693 98.11639713 -129.7890625 88.27734375 C-124.00976418 66.3703454 -107.95739556 48.34858631 -88.625 37.0625 C-77.54391765 30.95433944 -65.85100087 27.44653636 -53.70507812 24.15771484 C-36.15509857 19.40270747 -21.43091023 14.51592211 -7.4375 2.375 C-4.37702368 0.33468245 -3.50254006 0.05906476 0 0 Z " fill="#5DBA6E" transform="translate(166.4375,11.625)"/>
</svg>
